<?xml version="1.0"?>
<svg version="1.1" xmlns="http://www.w3.org/2000/svg" xmlns:xlink="http://www.w3.org/1999/xlink" width="744.095" height="1052.36">
    <desc iVinci="yes" version="4.6" gridStep="20" showGrid="no" snapToGrid="no" codePlatform="0"/>
    <g id="Layer1" name="Layer 1" opacity="1">
        <g id="Shape1">
            <desc shapeID="1" type="0" basicInfo-basicType="0" basicInfo-roundedRectRadius="12" basicInfo-polygonSides="6" basicInfo-starPoints="5" bounding="rect(-56.9305,-36.8824,113.861,73.765)" text="" font-familyName="" font-pixelSize="20" font-bold="0" font-underline="0" font-alignment="1" strokeStyle="0" markerStart="0" markerEnd="0" shadowEnabled="0" shadowOffsetX="0" shadowOffsetY="2" shadowBlur="4" shadowOpacity="160" blurEnabled="0" blurRadius="4" transform="matrix(1,0,0,1,234.559,175.223)" pers-center="0,0" pers-size="0,0" pers-start="0,0" pers-end="0,0" locked="0" mesh="" flag=""/>
            <path id="shapePath1" d="M291.489,167.885 L247.722,138.341 L177.628,212.042 L249.432,212.106 L291.489,167.885 Z" style="stroke:none;fill-rule:evenodd;fill:#216778;fill-opacity:1;"/>
        </g>
        <g id="Shape2">
            <desc shapeID="2" type="0" basicInfo-basicType="0" basicInfo-roundedRectRadius="12" basicInfo-polygonSides="6" basicInfo-starPoints="5" bounding="rect(-43.8725,-47.8895,87.745,95.7792)" text="" font-familyName="" font-pixelSize="20" font-bold="0" font-underline="0" font-alignment="1" strokeStyle="0" markerStart="0" markerEnd="0" shadowEnabled="0" shadowOffsetX="0" shadowOffsetY="2" shadowBlur="4" shadowOpacity="160" blurEnabled="0" blurRadius="4" transform="matrix(1,0,0,1,247.524,114.482)" pers-center="0,0" pers-size="0,0" pers-start="0,0" pers-end="0,0" locked="0" mesh="" flag=""/>
            <path id="shapePath2" d="M238.566,66.5928 L203.651,103.549 L291.396,162.372 L291.213,101.886 L238.566,66.5928 Z" style="stroke:none;fill-rule:evenodd;fill:#ff6600;fill-opacity:1;"/>
        </g>
        <g id="Shape3">
            <desc shapeID="3" type="0" basicInfo-basicType="0" basicInfo-roundedRectRadius="12" basicInfo-polygonSides="6" basicInfo-starPoints="5" bounding="rect(-56.9002,-36.9017,113.8,73.8036)" text="" font-familyName="" font-pixelSize="20" font-bold="0" font-underline="0" font-alignment="1" strokeStyle="0" markerStart="0" markerEnd="0" shadowEnabled="0" shadowOffsetX="0" shadowOffsetY="2" shadowBlur="4" shadowOpacity="160" blurEnabled="0" blurRadius="4" transform="matrix(1,0,0,1,175.941,103.319)" pers-center="0,0" pers-size="0,0" pers-start="0,0" pers-end="0,0" locked="0" mesh="" flag=""/>
            <path id="shapePath3" d="M119.041,110.741 L162.848,140.221 L232.841,66.4174 L161.037,66.4584 L119.041,110.741 Z" style="stroke:none;fill-rule:evenodd;fill:#216778;fill-opacity:1;"/>
        </g>
        <g id="Shape4">
            <desc shapeID="4" type="0" basicInfo-basicType="0" basicInfo-roundedRectRadius="12" basicInfo-polygonSides="6" basicInfo-starPoints="5" bounding="rect(-44.119,-47.7305,88.238,95.461)" text="" font-familyName="" font-pixelSize="20" font-bold="0" font-underline="0" font-alignment="1" strokeStyle="0" markerStart="0" markerEnd="0" shadowEnabled="0" shadowOffsetX="0" shadowOffsetY="2" shadowBlur="4" shadowOpacity="160" blurEnabled="0" blurRadius="4" transform="matrix(1,0,0,1,162.68,163.682)" pers-center="0,0" pers-size="0,0" pers-start="0,0" pers-end="0,0" locked="0" mesh="" flag=""/>
            <path id="shapePath4" d="M172.197,211.412 L206.799,174.247 L118.561,115.951 L119.254,176.434 L172.197,211.412 Z" style="stroke:none;fill-rule:evenodd;fill:#ff6600;fill-opacity:1;"/>
        </g>
        <g id="Shape5">
            <desc shapeID="5" type="0" basicInfo-basicType="0" basicInfo-roundedRectRadius="12" basicInfo-polygonSides="6" basicInfo-starPoints="5" bounding="rect(-520,-200,1040,400)" text="" font-familyName="" font-pixelSize="20" font-bold="0" font-underline="0" font-alignment="1" strokeStyle="0" markerStart="0" markerEnd="0" shadowEnabled="0" shadowOffsetX="0" shadowOffsetY="2" shadowBlur="4" shadowOpacity="160" blurEnabled="0" blurRadius="4" transform="matrix(1,0,0,1,1160,-307.638)" pers-center="0,0" pers-size="0,0" pers-start="0,0" pers-end="0,0" locked="0" mesh="" flag=""/>
            <path id="shapePath5" d="M640,-507.638 L1680,-507.638 L1680,-107.638 L640,-107.638 L640,-507.638 Z" style="stroke:none;fill-rule:evenodd;fill:#483737;fill-opacity:1;"/>
        </g>
        <g id="Shape6">
            <desc shapeID="6" type="0" basicInfo-basicType="0" basicInfo-roundedRectRadius="12" basicInfo-polygonSides="6" basicInfo-starPoints="5" bounding="rect(-7.87399,-7.05849,15.748,14.117)" text="" font-familyName="" font-pixelSize="20" font-bold="0" font-underline="0" font-alignment="1" strokeStyle="0" markerStart="0" markerEnd="0" shadowEnabled="0" shadowOffsetX="0" shadowOffsetY="2" shadowBlur="4" shadowOpacity="160" blurEnabled="0" blurRadius="4" transform="matrix(1,0,0,1,236.309,175.992)" pers-center="0,0" pers-size="0,0" pers-start="0,0" pers-end="0,0" locked="0" mesh="" flag=""/>
            <path id="shapePath6" d="M244.183,175.993 C244.183,179.891 240.658,183.051 236.309,183.051 C231.961,183.051 228.435,179.891 228.435,175.993 C228.435,172.094 231.961,168.934 236.309,168.934 C240.658,168.934 244.183,172.094 244.183,175.993 Z" style="stroke:none;fill-rule:evenodd;fill:#5fbcd3;fill-opacity:1;"/>
        </g>
        <g id="Shape7">
            <desc shapeID="7" type="0" basicInfo-basicType="0" basicInfo-roundedRectRadius="12" basicInfo-polygonSides="6" basicInfo-starPoints="5" bounding="rect(-23.2946,-17.748,46.589,35.496)" text="" font-familyName="" font-pixelSize="20" font-bold="0" font-underline="0" font-alignment="1" strokeStyle="0" markerStart="0" markerEnd="0" shadowEnabled="0" shadowOffsetX="0" shadowOffsetY="2" shadowBlur="4" shadowOpacity="160" blurEnabled="0" blurRadius="4" transform="matrix(1,0,0,1,217.189,194.353)" pers-center="0,0" pers-size="0,0" pers-start="0,0" pers-end="0,0" locked="0" mesh="" flag=""/>
            <path id="shapePath7" d="M193.894,212.101 L232.613,176.637 L240.483,176.605 L201.765,212.069 L193.894,212.101 Z" style="stroke:none;fill-rule:evenodd;fill:#5fbcd3;fill-opacity:1;"/>
        </g>
        <g id="Shape8">
            <desc shapeID="8" type="0" basicInfo-basicType="0" basicInfo-roundedRectRadius="12" basicInfo-polygonSides="6" basicInfo-starPoints="5" bounding="rect(-7.87349,-7.05849,15.747,14.117)" text="" font-familyName="" font-pixelSize="20" font-bold="0" font-underline="0" font-alignment="1" strokeStyle="0" markerStart="0" markerEnd="0" shadowEnabled="0" shadowOffsetX="0" shadowOffsetY="2" shadowBlur="4" shadowOpacity="160" blurEnabled="0" blurRadius="4" transform="matrix(1,0,0,1,262.43,175.992)" pers-center="0,0" pers-size="0,0" pers-start="0,0" pers-end="0,0" locked="0" mesh="" flag=""/>
            <path id="shapePath8" d="M270.303,175.993 C270.303,179.891 266.778,183.051 262.429,183.051 C258.081,183.051 254.556,179.891 254.556,175.993 C254.556,172.095 258.081,168.934 262.429,168.934 C266.778,168.934 270.303,172.095 270.303,175.993 Z" style="stroke:none;fill-rule:evenodd;fill:#5fbcd3;fill-opacity:1;"/>
        </g>
        <g id="Shape9">
            <desc shapeID="9" type="0" basicInfo-basicType="0" basicInfo-roundedRectRadius="12" basicInfo-polygonSides="6" basicInfo-starPoints="5" bounding="rect(-23.3221,-17.7115,46.644,35.423)" text="" font-familyName="" font-pixelSize="20" font-bold="0" font-underline="0" font-alignment="1" strokeStyle="0" markerStart="0" markerEnd="0" shadowEnabled="0" shadowOffsetX="0" shadowOffsetY="2" shadowBlur="4" shadowOpacity="160" blurEnabled="0" blurRadius="4" transform="matrix(1,0,0,1,243.322,194.389)" pers-center="0,0" pers-size="0,0" pers-start="0,0" pers-end="0,0" locked="0" mesh="" flag=""/>
            <path id="shapePath9" d="M220,212.1 L258.773,176.697 L266.644,176.677 L227.871,212.081 L220,212.1 Z" style="stroke:none;fill-rule:evenodd;fill:#5fbcd3;fill-opacity:1;"/>
        </g>
        <g id="Shape10">
            <desc shapeID="10" type="2" basicInfo-basicType="0" basicInfo-roundedRectRadius="12" basicInfo-polygonSides="6" basicInfo-starPoints="5" bounding="rect(-164.468,-34.8977,328.938,69.7955)" text="TBART" font-familyName="Audiowide" font-pixelSize="84" font-bold="1" font-underline="0" font-alignment="0" strokeStyle="0" markerStart="0" markerEnd="0" shadowEnabled="0" shadowOffsetX="0" shadowOffsetY="2" shadowBlur="4" shadowOpacity="160" blurEnabled="0" blurRadius="4" transform="matrix(1,0,0,1,462.976,133.785)" pers-center="0,0" pers-size="0,0" pers-start="0,0" pers-end="0,0" locked="0" mesh="" flag=""/>
            <path id="shapePath10" d="M357.873,114.867 L334.371,114.867 L334.371,163.02 L323.707,163.02 L323.707,114.867 L300.164,114.867 L300.164,104.203 L357.873,104.203 L357.873,114.867 M424.394,150.1 C424.394,151.412 424.168,152.82 423.717,154.324 C423.266,155.828 422.528,157.223 421.502,158.508 C420.477,159.793 419.144,160.866 417.503,161.728 C415.863,162.589 413.853,163.02 411.474,163.02 L370.992,163.02 C370.226,163.02 369.515,162.883 368.859,162.609 C368.203,162.336 367.635,161.96 367.157,161.481 C366.678,161.003 366.302,160.436 366.029,159.779 C365.755,159.123 365.619,158.412 365.619,157.647 L365.619,109.576 C365.619,108.838 365.755,108.141 366.029,107.484 C366.302,106.828 366.678,106.254 367.157,105.762 C367.635,105.27 368.203,104.887 368.859,104.613 C369.515,104.34 370.226,104.203 370.992,104.203 L406.675,104.203 C407.988,104.203 409.396,104.436 410.9,104.9 C412.404,105.365 413.805,106.11 415.104,107.136 C416.403,108.161 417.483,109.494 418.344,111.135 C419.206,112.775 419.636,114.785 419.636,117.164 L419.636,119.174 C419.636,121.061 419.322,123.091 418.693,125.265 C418.064,127.439 417.052,129.496 415.658,131.438 C416.861,132.176 417.989,133.064 419.042,134.104 C420.094,135.143 421.017,136.346 421.81,137.713 C422.603,139.08 423.232,140.625 423.697,142.348 C424.162,144.07 424.394,145.971 424.394,148.049 L424.394,150.1 M413.73,148.049 C413.73,146.654 413.511,145.403 413.074,144.296 C412.636,143.189 412.021,142.238 411.228,141.445 C410.435,140.652 409.478,140.044 408.357,139.62 C407.236,139.196 405.978,138.984 404.583,138.984 L380.548,138.984 L380.548,128.238 L399.785,128.238 C401.179,128.238 402.437,128.026 403.558,127.603 C404.679,127.179 405.636,126.57 406.429,125.777 C407.222,124.984 407.831,124.034 408.254,122.927 C408.678,121.819 408.89,120.568 408.89,119.174 L408.89,117.164 C408.89,115.633 408.152,114.867 406.675,114.867 L376.283,114.867 L376.283,152.356 L411.474,152.356 C411.666,152.356 411.898,152.342 412.171,152.314 C412.445,152.287 412.691,152.205 412.91,152.068 C413.128,151.932 413.32,151.699 413.484,151.371 C413.648,151.043 413.73,150.592 413.73,150.018 L413.73,148.049 M491.363,163.02 L480.699,163.02 L480.699,148.582 L443.21,148.582 L443.21,163.02 L432.546,163.02 L432.546,133.611 C432.546,129.318 433.285,125.367 434.761,121.758 C436.238,118.148 438.289,115.045 440.914,112.447 C443.539,109.85 446.642,107.826 450.224,106.377 C453.806,104.928 457.716,104.203 461.955,104.203 L485.99,104.203 C486.728,104.203 487.425,104.34 488.082,104.613 C488.738,104.887 489.312,105.27 489.804,105.762 C490.296,106.254 490.679,106.828 490.953,107.484 C491.226,108.141 491.363,108.838 491.363,109.576 L491.363,163.02 M443.21,137.918 L480.699,137.918 L480.699,114.867 L461.955,114.867 C461.626,114.867 460.936,114.915 459.883,115.011 C458.831,115.106 457.614,115.346 456.233,115.729 C454.852,116.111 453.396,116.699 451.865,117.492 C450.333,118.285 448.925,119.379 447.64,120.773 C446.355,122.168 445.295,123.911 444.461,126.003 C443.627,128.095 443.21,130.631 443.21,133.611 L443.21,137.918 M562.523,123.973 C562.523,126.406 562.222,128.58 561.621,130.494 C561.019,132.408 560.206,134.097 559.18,135.56 C558.155,137.023 556.972,138.273 555.632,139.313 C554.292,140.352 552.891,141.206 551.428,141.876 C549.965,142.546 548.489,143.031 546.999,143.332 C545.508,143.633 544.107,143.783 542.794,143.783 L565.066,163.02 L548.578,163.02 L526.347,143.783 L518.677,143.783 L518.677,133.119 L542.794,133.119 C544.134,133.01 545.358,132.73 546.465,132.278 C547.573,131.827 548.53,131.219 549.336,130.453 C550.143,129.688 550.765,128.765 551.203,127.685 C551.64,126.605 551.859,125.367 551.859,123.973 L551.859,117.246 C551.859,116.645 551.784,116.187 551.633,115.872 C551.483,115.558 551.292,115.325 551.059,115.175 C550.827,115.024 550.581,114.936 550.321,114.908 C550.061,114.881 549.822,114.867 549.603,114.867 L514.412,114.867 L514.412,163.02 L503.748,163.02 L503.748,109.576 C503.748,108.838 503.884,108.141 504.158,107.484 C504.431,106.828 504.807,106.254 505.286,105.762 C505.764,105.27 506.332,104.887 506.988,104.613 C507.644,104.34 508.355,104.203 509.121,104.203 L549.603,104.203 C551.982,104.203 553.992,104.634 555.632,105.495 C557.273,106.356 558.606,107.437 559.631,108.735 C560.657,110.034 561.395,111.436 561.846,112.939 C562.297,114.443 562.523,115.852 562.523,117.164 L562.523,123.973 M625.919,114.867 L602.417,114.867 L602.417,163.02 L591.753,163.02 L591.753,114.867 L568.21,114.867 L568.21,104.203 L625.919,104.203 L625.919,114.867 Z" style="stroke:none;fill-rule:nonzero;fill:#ff6600;fill-opacity:1;"/>
        </g>
    </g>
</svg>
